<?xml version="1.0" encoding="UTF-8"?>
<svg id="Layer_2" data-name="Layer 2" xmlns="http://www.w3.org/2000/svg" viewBox="0 0 267.56 143.59">
  <defs>
    <style>
      .cls-1 {
        letter-spacing: .34em;
      }

      .cls-2 {
        letter-spacing: .34em;
      }

      .cls-3 {
        fill: #fff;
        font-family: Inter-Medium, Inter;
        font-size: 9.83px;
        font-weight: 500;
      }

      .cls-4 {
        letter-spacing: .26em;
      }

      .cls-5 {
        letter-spacing: .3em;
      }

      .cls-6 {
        fill: #27468d;
      }

      .cls-6, .cls-7, .cls-8, .cls-9 {
        stroke-width: 0px;
      }

      .cls-7 {
        fill: #474747;
      }

      .cls-8 {
        fill: #26468d;
      }

      .cls-9 {
        fill: #f15c24;
      }
    </style>
  </defs>
  <g id="Layer_1-2" data-name="Layer 1">
    <g>
      <path class="cls-8" d="m3.14,38.18h28.79c.1.35.14,74.91.04,75.68H3.14V38.18Z"/>
      <path class="cls-6" d="m17.39,0C7.79,0,0,7.64,0,17.06s7.79,17.06,17.39,17.06,17.39-7.64,17.39-17.06S27,0,17.39,0Zm3.45,28.7c-4.54-.07-8.95-3.66-8.93-8.95.02-4.97,4.1-8.87,9.13-8.84,5.06.04,9,4.04,9.01,8.92-.05,5.26-4.5,8.94-9.21,8.87Z"/>
      <path class="cls-7" d="m132.24,90.76c-.07.02-.11.04-.15.04-1.7,0-3.41,0-5.11,0-.04,0-.08-.02-.14-.04,0-.15-.02-.3-.02-.45,0-2.61,0-5.21,0-7.82,0-.48,0-.96-.08-1.44-.06-.37-.14-.72-.29-1.06-.27-.6-.74-.93-1.41-.96-1.07-.05-1.81.4-2.22,1.3-.24.52-.34,1.08-.41,1.64-.08.62-.1,1.24-.1,1.86,0,2.15,0,4.3,0,6.46,0,.15,0,.31-.01.48-.09.01-.15.03-.22.03-1.66,0-3.32,0-4.98,0-.06,0-.11-.01-.19-.02-.01-.08-.03-.16-.04-.24,0-.1,0-.2,0-.3v-15.17c.1-.02.16-.05.23-.05,1.28,0,2.56-.02,3.87,0,.23.64.45,1.27.67,1.89.2.08.33.05.45-.12.83-1.19,2.04-1.75,3.45-1.97.88-.14,1.75-.13,2.63.05,2.04.42,3.29,1.65,3.84,3.6.19.67.25,1.36.25,2.06,0,2.63,0,5.27,0,7.9,0,.65,0,1.3,0,1.95,0,.12-.01.25-.02.37Z"/>
      <path class="cls-7" d="m179.52,97.89c.06-.01.11-.03.17-.03,1.72,0,3.43,0,5.18,0,.02.13.04.24.04.35,0,.52,0,1.05,0,1.57,0,2.17,0,4.33,0,6.5,0,.55,0,1.11.13,1.65.05.23.12.47.21.69.27.69.81,1.01,1.55,1.01.24,0,.49-.03.73-.09.54-.13.95-.46,1.23-.94.17-.28.28-.59.36-.91.16-.65.25-1.31.26-1.97.02-.69.02-1.39.02-2.08,0-1.76,0-3.51,0-5.27,0-.15.01-.3.01-.42.05-.05.05-.06.06-.07.01,0,.03-.01.04-.01,1.67,0,3.35,0,5.02-.01.07,0,.14.01.21.02.01,0,.02.02.06.05,0,.05.02.14.02.22.06,2.3.03,15.03-.04,15.48-.43.07-.88.02-1.32.03-.45,0-.89,0-1.34,0h-1.35c-.19-.3-.26-.64-.37-.96-.12-.32-.23-.64-.34-.96-.19-.09-.33-.05-.45.12-.82,1.17-2,1.76-3.4,1.98-.96.15-1.93.14-2.88-.08-1.74-.41-2.89-1.47-3.48-3.11-.21-.59-.32-1.2-.35-1.83-.01-.24-.02-.48-.02-.72,0-3.24,0-6.48,0-9.73,0-.15-.03-.31.04-.47Z"/>
      <path class="cls-7" d="m175.78,113.6c-.38.06-4.88.08-5.38.02-.02-.07-.04-.15-.05-.23,0-.13,0-.25,0-.38,0-2.56,0-5.13,0-7.69,0-.57.01-1.14-.12-1.69-.07-.29-.15-.58-.27-.85-.26-.59-.74-.9-1.39-.92-1.09-.04-1.82.42-2.21,1.31-.12.28-.21.59-.28.89-.2.86-.23,1.74-.23,2.62,0,2.14,0,4.28,0,6.41,0,.17,0,.34,0,.52-.09.02-.16.04-.23.04-1.65,0-3.29,0-4.94,0-.07,0-.14-.02-.23-.03-.01-.13-.03-.24-.03-.35-.06-3.84-.03-14.97.04-15.37.01,0,.02-.02.03-.03.01,0,.02-.02.04-.02,1.2,0,2.4,0,3.59-.01.11,0,.23,0,.36,0,.29.63.44,1.3.72,1.93h.31s.07-.08.11-.13c.58-.86,1.4-1.42,2.39-1.74,1.34-.43,2.7-.47,4.05-.13,1.68.43,2.78,1.49,3.36,3.08.21.59.32,1.2.36,1.83.02.25.02.51.02.76,0,3.23,0,6.46,0,9.68v.44Z"/>
      <path class="cls-7" d="m188.67,80.74c.04-.36.02-.67-.07-.97-.18-.66-.63-1.02-1.3-1.14-.52-.09-1.04-.03-1.55.05-.99.16-1.93.48-2.84.86-.15.06-.29.11-.44.17-.01,0-.03,0-.04,0-.21-.33-1.47-3.21-1.54-3.54.1-.12.26-.17.4-.23.89-.41,1.83-.69,2.8-.87,1.34-.26,2.69-.36,4.05-.32.91.02,1.81.15,2.67.49,1.88.74,2.95,2.11,3.25,4.06.06.39.09.79.09,1.18,0,3.3,0,6.6,0,9.89,0,.13,0,.25-.02.39-.07.02-.12.04-.17.04-1.15,0-2.31,0-3.46,0-.03,0-.06-.01-.12-.03-.04-.08-.1-.17-.15-.27-.25-.49-.5-.99-.75-1.48-.05-.1-.11-.19-.19-.31-.1.09-.17.14-.24.21-.3.3-.59.62-.91.91-.68.61-1.49.97-2.39,1.12-.76.13-1.52.17-2.28.12-1.98-.13-3.52-1.32-4.02-3.29-.27-1.06-.31-2.13-.05-3.2.25-1.05.84-1.88,1.77-2.47.69-.44,1.44-.72,2.23-.91.91-.22,1.84-.33,2.78-.36.75-.02,1.5-.05,2.25-.08.07,0,.14-.01.24-.03Zm0,3.04c-.06,0-.13-.02-.19-.02-.43.02-.86.04-1.29.07-.4.03-.8.1-1.18.24-.95.36-1.39,1.2-1.16,2.18.13.55.48.86,1.03.95.44.07.9.07,1.32-.1.86-.33,1.43-.91,1.51-1.84.04-.46.02-.93.02-1.4,0-.02-.03-.05-.05-.09Z"/>
      <path class="cls-7" d="m109.93,102.57c-.05-.09-.1-.16-.13-.23-.48-1.11-.98-2.2-1.45-3.34.17-.08.3-.16.45-.22,1-.46,2.05-.75,3.14-.93,1.26-.22,2.52-.29,3.79-.26.9.02,1.78.16,2.62.5,1.81.72,2.87,2.04,3.19,3.92.07.39.1.79.1,1.18,0,3.37,0,6.74,0,10.11,0,.1-.01.2-.02.31-.07.02-.14.04-.21.04-1.13,0-2.25,0-3.38,0-.04,0-.08-.01-.15-.02-.05-.09-.11-.18-.16-.28-.25-.49-.49-.99-.74-1.49-.05-.1-.11-.19-.19-.31-.09.07-.15.12-.21.18-.28.29-.54.59-.84.86-.73.69-1.62,1.07-2.61,1.22-.73.11-1.47.15-2.2.09-1.18-.09-2.21-.52-3-1.41-.49-.54-.8-1.18-.97-1.87-.26-1.03-.3-2.07-.07-3.11.24-1.09.84-1.94,1.8-2.55.79-.5,1.66-.79,2.56-.98.76-.16,1.54-.25,2.32-.27.76-.02,1.53-.05,2.29-.08.1,0,.2-.02.28-.02.25-1.01-.31-1.91-1.29-2.12-.37-.08-.75-.07-1.12-.03-1.03.11-2,.41-2.96.78-.28.11-.56.22-.85.34Zm6.3,4.06c-.1-.01-.15-.03-.21-.03-.55.03-1.09.04-1.64.1-.4.04-.79.14-1.15.33-.41.22-.71.53-.84.97-.12.39-.13.78-.02,1.17.11.41.39.68.8.82.29.09.59.1.9.08.91-.06,2.04-.69,2.16-2.01.04-.46,0-.93,0-1.43Z"/>
      <path class="cls-7" d="m267.53,84.39c-1.11,0-2.18,0-3.25,0-1.07,0-2.14,0-3.2,0-1.06,0-2.13,0-3.16,0-.11.13-.07.23-.05.32.12,1.01.67,1.73,1.6,2.16.53.24,1.1.33,1.68.34,1.7.03,3.33-.29,4.88-.97.14-.06.29-.12.41-.17.04.02.06.03.07.04,0,.01.01.03.01.04,0,1.25,0,2.49,0,3.76-.09.05-.19.12-.29.17-1.01.48-2.07.78-3.19.88-.66.06-1.32.11-1.99.13-1.29.03-2.57-.07-3.8-.48-2.52-.84-4.05-2.57-4.65-5.1-.29-1.24-.32-2.49-.21-3.76.08-.88.24-1.74.55-2.57.54-1.44,1.44-2.61,2.79-3.41.74-.44,1.54-.71,2.38-.86,1.45-.26,2.9-.25,4.34.07.97.21,1.86.59,2.65,1.19,1.08.82,1.75,1.91,2.11,3.18.22.77.31,1.56.33,2.35.02.79,0,1.59,0,2.38,0,.08-.02.16-.03.3Zm-4.93-3.5c-.01-.7-.21-1.33-.72-1.85-.35-.35-.77-.54-1.27-.58-.2-.02-.4-.02-.6,0-.6.05-1.11.31-1.49.77-.39.48-.53,1.05-.58,1.65.06.02.1.05.14.05,1.46,0,2.91,0,4.37,0,.04,0,.08-.03.14-.05Z"/>
      <path class="cls-7" d="m153.94,84.44c-.04.46.1.87.31,1.26.32.61.83,1,1.47,1.25.45.17.92.25,1.4.27,1.58.04,3.1-.21,4.57-.8.23-.09.45-.19.68-.28.06-.03.13-.03.2-.05.05.34.06,3.38.01,3.86-.11.06-.24.12-.37.18-1,.47-2.06.73-3.16.85-1.14.12-2.27.16-3.41.08-.96-.07-1.89-.25-2.77-.61-2.17-.88-3.52-2.45-4.12-4.66-.31-1.15-.38-2.32-.32-3.5.05-.83.15-1.66.39-2.47.08-.27.17-.54.27-.8.86-2.13,2.44-3.46,4.7-4.01,1.12-.27,2.25-.32,3.4-.22.58.05,1.15.13,1.7.29,2.39.67,3.88,2.18,4.48,4.55.17.66.25,1.34.26,2.02.01.82,0,1.64,0,2.46,0,.07,0,.14-.02.23-.08.02-.16.05-.24.05-.13,0-.26,0-.39,0-2.84,0-5.69,0-8.53,0-.17,0-.34-.03-.52.05Zm4.76-3.52c-.03-.52-.12-.97-.36-1.39-.31-.55-.78-.91-1.41-1.03-.22-.04-.46-.05-.69-.04-.92.04-1.59.48-1.94,1.32-.12.28-.17.6-.25.9-.02.08-.04.17.03.23.36.05,3.31.07,4.37.03.07,0,.14-.02.25-.03Z"/>
      <path class="cls-7" d="m203.45,107.26c-.08.14-.01.28,0,.42.17,1.05.79,1.74,1.78,2.12.52.2,1.06.26,1.61.27,1.64,0,3.21-.3,4.71-.96.15-.07.31-.13.5-.21.08.45.03.87.04,1.29,0,.42,0,.85,0,1.27v1.29c-.11.06-.2.13-.3.17-.88.42-1.8.69-2.76.83-1.26.18-2.53.22-3.8.15-1.04-.06-2.06-.26-3.02-.67-2.02-.86-3.31-2.35-3.93-4.42-.22-.74-.34-1.49-.36-2.26-.04-1.15,0-2.29.26-3.42.18-.79.46-1.55.87-2.25.95-1.59,2.35-2.57,4.16-3.01,1.22-.3,2.45-.33,3.7-.21.65.06,1.29.18,1.9.4,2.09.72,3.42,2.14,4,4.24.2.73.29,1.47.3,2.23,0,.81,0,1.61,0,2.42,0,.08-.01.16-.02.25-.17.07-.33.04-.48.04-1.18,0-2.37,0-3.55,0-1.72,0-3.43,0-5.15,0-.16,0-.32-.03-.47.04Zm4.73-3.51c-.02-.94-.3-1.74-1.16-2.19-.82-.43-1.67-.4-2.46.11-.66.42-1.09,1.38-.96,2.08.35.05,4.11.05,4.59,0Z"/>
      <path class="cls-7" d="m157.31,107.21c-.57.01-1.1,0-1.63,0-.53,0-1.07,0-1.6,0h-3.2c-.53,0-1.07,0-1.6,0-.53,0-1.06-.01-1.62,0,0,.11-.03.19-.02.27.13,1.07.7,1.84,1.72,2.26.54.23,1.11.3,1.69.3,1.64.01,3.21-.29,4.71-.95.14-.06.29-.12.44-.18.01,0,.03,0,.05,0,.07.02.06.08.06.13,0,1.22,0,2.43,0,3.67-.08.05-.15.11-.24.16-.87.42-1.79.7-2.75.85-1.26.19-2.53.22-3.8.16-.85-.04-1.69-.19-2.5-.46-2.31-.78-3.81-2.32-4.5-4.62-.26-.86-.36-1.75-.38-2.64-.03-1.28.08-2.54.47-3.77.21-.65.49-1.27.87-1.84.96-1.43,2.31-2.3,3.99-2.71,1.22-.29,2.45-.33,3.7-.2.58.06,1.14.16,1.69.34,2.23.7,3.62,2.18,4.2,4.4.17.66.26,1.33.27,2.02,0,.85,0,1.7,0,2.55,0,.07-.01.14-.02.27Zm-4.92-3.46c0-.61-.15-1.15-.52-1.63-.35-.47-.83-.74-1.42-.8-.21-.02-.43-.03-.65,0-.87.09-1.48.53-1.81,1.32-.12.28-.16.6-.24.9-.02.08-.05.16.03.23.29.03,3.86.06,4.41.03.05,0,.11-.02.19-.04Z"/>
      <path class="cls-7" d="m233.74,75.05c.19-.02.3-.03.41-.03,2.77-.04,4.89-.02,5.25.05.04.12.08.26.12.39.82,2.87,1.65,5.75,2.47,8.62.15.53.27,1.07.31,1.62,0,.05.02.09.03.15.13-.06.1-.16.1-.24.03-.43.12-.84.24-1.25.89-2.99,1.78-5.98,2.67-8.96.04-.12.09-.24.12-.34.33-.05,4.67-.09,5.43-.04.05,0,.11.03.18.05-.02.08-.03.15-.06.21-1.97,5.17-3.93,10.34-5.9,15.49-.43.06-2.94.08-5.1.04-.1,0-.2-.02-.32-.03-1.99-5.23-3.98-10.45-5.99-15.73Z"/>
      <path class="cls-7" d="m123.57,97.87h5.56c.04.11.09.22.12.32.85,2.97,1.7,5.94,2.54,8.91.11.39.16.8.24,1.21.03.13.02.28.14.47.02-.86.27-1.6.49-2.34.19-.64.38-1.28.57-1.91.62-2.06,1.23-4.13,1.85-6.19.04-.15.1-.29.15-.43.36-.06,5.2-.06,5.6,0,0,.05,0,.11-.03.16-1.97,5.2-3.95,10.39-5.93,15.58h-5.33s-.03-.03-.05-.04c-.01,0-.02-.02-.03-.03-1.96-5.13-3.91-10.25-5.86-15.38-.03-.07-.04-.13-.07-.2,0-.01,0-.03,0-.04,0-.01,0-.03.03-.08Z"/>
      <path class="cls-7" d="m228.23,98.91c-.09.35-1.25,3.14-1.46,3.48-.14-.05-.28-.1-.43-.16-.91-.37-1.84-.67-2.8-.86-.55-.11-1.11-.18-1.67-.05-.1.02-.2.05-.29.09-.4.17-.51.57-.24.91.1.13.25.24.39.33.18.11.38.2.58.29.62.26,1.25.52,1.87.78.6.24,1.19.5,1.75.82.25.14.49.29.72.46,1.02.74,1.56,1.75,1.69,2.98.08.71.06,1.41-.08,2.11-.26,1.23-.93,2.18-2.02,2.84-.69.41-1.43.66-2.22.81-.6.11-1.2.18-1.8.19-1.18.02-2.37,0-3.54-.17-.85-.12-1.66-.34-2.47-.62-.05-.02-.1-.05-.16-.08,0-.06-.02-.11-.02-.17,0-1.34,0-2.69,0-4.03,0-.02.02-.05.05-.09.1.03.21.07.32.11,1.22.49,2.48.84,3.78,1.03.7.1,1.41.17,2.11.04.21-.04.42-.1.61-.2.37-.19.45-.6.22-.95-.11-.17-.27-.3-.44-.4-.21-.12-.43-.23-.65-.33-.66-.29-1.33-.55-1.98-.84-.5-.22-1-.45-1.48-.7-.3-.16-.59-.36-.86-.56-.98-.72-1.5-1.7-1.65-2.87-.08-.63-.08-1.27.06-1.9.2-.91.68-1.64,1.41-2.23.7-.55,1.5-.89,2.37-1.09,1.28-.29,2.57-.32,3.87-.21,1.48.13,2.87.59,4.23,1.16.08.03.15.08.22.12Z"/>
      <path class="cls-7" d="m146.05,79.07c-.33.04-.65.02-.96.02-.32,0-.63,0-.95,0s-.61,0-.91,0c-.31,0-.63-.02-.96.02-.01.11-.04.21-.04.3,0,1.94,0,3.88,0,5.82,0,.26.02.51.11.75.14.37.41.61.79.72.35.1.71.09,1.07.05.56-.06,1.11-.19,1.64-.36.13-.04.27-.08.44-.12.07.46.03.89.03,1.32,0,.42,0,.85,0,1.27v1.31c-.08.05-.14.08-.21.11-1.03.43-2.1.7-3.22.76-.63.03-1.27.05-1.9,0-.52-.05-1.03-.15-1.52-.32-1.01-.35-1.72-1.01-2.16-1.96-.3-.65-.46-1.34-.52-2.05-.04-.49-.06-.99-.06-1.48,0-1.87,0-3.74,0-5.61,0-.15,0-.31,0-.48-.12-.02-.22-.04-.31-.04-.38,0-.75,0-1.13,0-.13,0-.26-.01-.38-.02-.03-.05-.06-.09-.06-.12,0-.68,0-1.36,0-2.05.1-.08.2-.16.3-.23.58-.42,1.16-.84,1.76-1.24.25-.17.41-.37.53-.64.34-.84.7-1.67,1.06-2.51.06-.13.11-.26.18-.39.4-.07.78-.02,1.17-.03.39,0,.78,0,1.17,0,.39,0,.77,0,1.14,0,.12.14.09.27.09.39,0,.76,0,1.53,0,2.29,0,.14.01.28.02.42.15.08.3.05.44.05.95,0,1.9,0,2.86,0,.16,0,.31,0,.49.01.02.08.04.15.04.21,0,1.2,0,2.41,0,3.61,0,.07-.02.13-.03.22Z"/>
      <path class="cls-7" d="m223.51,86.28c.07.35.09,2.96.04,3.9-.07.04-.16.1-.25.14-1.05.43-2.13.69-3.27.75-.61.03-1.21.04-1.82-.02-.55-.05-1.08-.16-1.6-.35-.9-.34-1.57-.93-2-1.78-.32-.64-.5-1.33-.57-2.03-.05-.53-.08-1.07-.08-1.61,0-1.88,0-3.76,0-5.65,0-.15,0-.31,0-.48-.12-.02-.22-.04-.31-.04-.36,0-.72,0-1.08,0-.14,0-.29,0-.44,0-.02-.07-.06-.12-.06-.17,0-.66,0-1.33,0-2.01.1-.08.2-.16.3-.23.62-.44,1.24-.88,1.86-1.32.19-.13.31-.28.39-.49.35-.85.71-1.7,1.07-2.55.06-.14.13-.28.2-.45.28-.05.57-.02.86-.03.3,0,.61,0,.91,0s.58,0,.87,0c.29,0,.57,0,.83,0,.13.14.09.27.09.39,0,.76,0,1.53,0,2.29,0,.14.01.28.02.4.16.11.31.07.45.07.98,0,1.96,0,2.94,0,.14,0,.29-.03.42.05.06.36.06,3.63,0,3.99-.14.06-.3.04-.46.04-.95,0-1.9,0-2.86,0h-.45c-.02.12-.05.21-.05.3,0,.45,0,.91,0,1.36,0,1.43,0,2.86,0,4.29,0,.23.01.45.05.68.09.57.43.9,1.01,1.02.32.07.63.05.95.01.56-.06,1.11-.19,1.64-.36.13-.04.27-.07.41-.11Z"/>
      <path class="cls-7" d="m210.61,75.95c-.54,1.35-1.05,2.65-1.58,3.98-.1-.03-.18-.05-.26-.07-.53-.19-1.05-.4-1.58-.58-.66-.22-1.35-.3-2.05-.24-.74.06-1.31.41-1.73,1-.28.39-.45.82-.55,1.28-.25,1.12-.24,2.25.02,3.37.07.32.2.62.36.9.39.65.97,1.03,1.74,1.12.96.11,1.9-.03,2.82-.3.64-.19,1.24-.46,1.82-.78.12-.07.25-.13.35-.19.04.02.06.02.07.03,0,0,.01.02.02.04,0,.06.01.11.01.17,0,1.33,0,2.66,0,4-.11.08-.22.16-.33.22-.9.54-1.87.88-2.91,1.04-1.38.22-2.76.2-4.13-.08-1.37-.28-2.59-.86-3.56-1.88-.82-.86-1.33-1.88-1.63-3-.36-1.37-.43-2.76-.3-4.17.06-.71.18-1.4.41-2.08.85-2.56,2.63-4.15,5.3-4.73,2.5-.54,4.93-.3,7.27.74.13.06.25.13.42.21Z"/>
      <path class="cls-7" d="m172.12,90.76c-.06.02-.1.04-.14.04-1.69,0-3.38,0-5.06,0-.05,0-.11-.02-.17-.03-.02-.05-.04-.09-.04-.13,0-5.14,0-10.28,0-15.42,0-.05.02-.11.03-.17.06-.02.12-.04.17-.04,1.27,0,2.54,0,3.83,0,.06.16.12.3.17.45.21.6.41,1.21.61,1.81.03.1.04.23.19.26.17.03.22-.1.29-.21.53-.87,1.25-1.55,2.16-2.04.83-.45,1.73-.63,2.67-.53.33.03.66.09.97.13.12.17.06.33.05.48-.05.65-.12,1.3-.18,1.94-.08.8-.16,1.61-.23,2.41,0,.08-.02.16-.03.27-.13,0-.24.01-.35,0-.72-.11-1.44-.12-2.16-.06-.31.03-.63.09-.93.19-.76.24-1.28.74-1.56,1.48-.17.46-.25.93-.25,1.41,0,.92,0,1.84,0,2.76,0,1.51,0,3.03,0,4.54,0,.15-.01.3-.02.46Z"/>
      <path class="cls-7" d="m231.78,90.77c-.37.05-4.93.06-5.39.01-.01-.07-.03-.15-.04-.23,0-.08,0-.17,0-.25,0-4.91,0-9.83,0-14.74v-.48c.1-.02.19-.05.27-.05,1.63,0,3.26,0,4.89,0,.07,0,.14.01.23.02.02.08.04.16.05.24,0,.1,0,.2,0,.3,0,4.88,0,9.77,0,14.65,0,.17,0,.34-.01.53Z"/>
      <path class="cls-7" d="m113.04,90.76c-.37.05-4.92.06-5.36,0-.01-.07-.04-.15-.05-.23,0-.08,0-.17,0-.25,0-4.91,0-9.82,0-14.74,0-.15,0-.31,0-.44.15-.14.3-.09.44-.09,1,0,1.99,0,2.99,0,.53,0,1.07,0,1.6,0,.13,0,.26-.03.37.06.04.32.05,15.23,0,15.69Z"/>
      <path class="cls-7" d="m229.1,68.64c.39.05.78.07,1.15.15.99.21,1.55.8,1.7,1.79.06.42.05.84-.05,1.26-.16.63-.54,1.08-1.14,1.35-.82.38-2.51.37-3.3.02-.6-.27-1-.71-1.16-1.34-.15-.57-.13-1.15.03-1.72.19-.63.6-1.05,1.23-1.27.5-.18,1.01-.21,1.54-.24Z"/>
      <path class="cls-7" d="m110.38,68.64c.38.05.78.07,1.15.15,1.03.22,1.59.85,1.71,1.87.06.46.03.9-.11,1.34-.16.51-.49.89-.98,1.13-.31.16-.64.26-.99.3-.63.07-1.27.09-1.89-.05-.1-.02-.2-.05-.29-.08-.84-.26-1.33-.82-1.46-1.67-.07-.45-.06-.9.05-1.35.18-.72.62-1.19,1.34-1.42.47-.15.96-.18,1.45-.21Z"/>
      <path class="cls-9" d="m64.17,84.35h-4.18c3.19-2.81,4.53-6.19,3.79-10.24-.46-2.55-1.8-4.64-3.86-6.26-4.17-3.27-10.21-3.01-14.09.61-3.89,3.63-4.47,9.52-1.33,13.77,1.76,2.39,4.15,3.84,7.13,4.28,2.98.44,5.68-.28,8.15-2.04v28.94c-.76.1-1.51.21-2.27.29-2.5.25-5.01.29-7.52.09-4.6-.36-9.03-1.4-13.25-3.24-9.01-3.94-15.74-10.21-20-18.97-1.67-3.43-2.75-7.04-3.21-10.81-1.31-10.8,1.59-20.41,8.7-28.72,5.88-6.87,13.4-11.14,22.32-13.06,3.62-.78,7.29-1.06,10.98-.83,10.42.65,19.4,4.51,26.76,11.81,5.17,5.12,8.53,11.24,10.11,18.29.55,2.47.83,4.98.84,7.51,0,12.53,0,25.06,0,37.59v.51h-29.06c-.03-4.91-.01-9.82-.02-14.74,0-4.92,0-9.84,0-14.8Z"/>
      <path class="cls-8" d="m60.34,88.74c-5.31-.07-8.98-4.32-8.97-8.84,0-4.49,3.65-8.8,9-8.81,5.25,0,9.01,4.2,9,8.85-.02,4.62-3.78,8.75-9.02,8.79Z"/>
      <rect class="cls-7" x="3.14" y="127.03" width="264.42" height="16.55"/>
      <text class="cls-3" transform="translate(12.8 139.31) scale(1.02 1)"><tspan class="cls-2" x="0" y="0">A KINESSO NET</tspan><tspan class="cls-5" x="117.86" y="0">W</tspan><tspan class="cls-2" x="130.45" y="0">ORK COM</tspan><tspan class="cls-4" x="200.48" y="0">P</tspan><tspan class="cls-1" x="209.34" y="0">ANY</tspan></text>
    </g>
  </g>
</svg>